<svg width="51" height="44" viewBox="0 0 51 44" fill="none" xmlns="http://www.w3.org/2000/svg">
<path d="M42 25.3128H33.75C33.5262 25.3128 33.3116 25.2239 33.1534 25.0657C32.9951 24.9074 32.9062 24.6928 32.9062 24.4691C32.9062 24.2453 32.9951 24.0307 33.1534 23.8724C33.3116 23.7142 33.5262 23.6253 33.75 23.6253H42C42.2238 23.6253 42.4384 23.7142 42.5966 23.8724C42.7548 24.0307 42.8437 24.2453 42.8437 24.4691C42.8437 24.6928 42.7548 24.9074 42.5966 25.0657C42.4384 25.2239 42.2238 25.3128 42 25.3128Z" fill="#E0E2E5"/>
<path d="M23.625 14.3441L25.3125 34.5941V36.2816H35.4375V34.5941L37.125 14.3441H23.625Z" fill="#93573D"/>
<path d="M15.1875 14.3441V13.5003H11.8125V16.0316H8.4375V24.4691H11.8125H15.1875V23.6253H18.5625V14.3441H15.1875Z" fill="#FDD14B"/>
<path d="M11.8125 27.0003C11.5887 27.0003 11.3741 26.9114 11.2159 26.7532C11.0576 26.5949 10.9688 26.3803 10.9688 26.1566V16.8753C10.9688 16.6515 11.0576 16.4369 11.2159 16.2787C11.3741 16.1204 11.5887 16.0316 11.8125 16.0316C12.0363 16.0316 12.2509 16.1204 12.4091 16.2787C12.5674 16.4369 12.6562 16.6515 12.6562 16.8753V26.1566C12.6562 26.3803 12.5674 26.5949 12.4091 26.7532C12.2509 26.9114 12.0363 27.0003 11.8125 27.0003Z" fill="#E4BC43"/>
<path d="M15.3082 28.6878C15.0858 28.6878 14.8724 28.6 14.7144 28.4435C14.5564 28.287 14.4666 28.0744 14.4644 27.852L14.3438 15.1958C14.3417 14.972 14.4285 14.7566 14.5852 14.5968C14.742 14.4371 14.9557 14.3462 15.1795 14.344C15.4033 14.3419 15.6188 14.4288 15.7785 14.5855C15.9382 14.7422 16.0292 14.956 16.0313 15.1798L16.1518 27.836C16.154 28.0598 16.0671 28.2752 15.9105 28.4349C15.7538 28.5947 15.5401 28.6856 15.3163 28.6878H15.3082Z" fill="#E4BC43"/>
<path d="M7.59375 22.7816L9.28125 34.5941V36.2816H19.4062V34.5941V22.7816H7.59375Z" fill="#E74444"/>
<path d="M47.25 25.3128H45.5625C45.3387 25.3128 45.1241 25.2239 44.9659 25.0657C44.8076 24.9074 44.7188 24.6928 44.7188 24.4691C44.7188 24.2453 44.8076 24.0307 44.9659 23.8724C45.1241 23.7142 45.3387 23.6253 45.5625 23.6253H47.25C47.4738 23.6253 47.6884 23.7142 47.8466 23.8724C48.0049 24.0307 48.0938 24.2453 48.0938 24.4691C48.0938 24.6928 48.0049 24.9074 47.8466 25.0657C47.6884 25.2239 47.4738 25.3128 47.25 25.3128Z" fill="#E0E2E5"/>
<path d="M37.125 14.3441L36.8434 17.7191H23.9066L23.625 14.3441H37.125Z" fill="#A4D4F4"/>
<path d="M21.9862 9.28152C21.8335 9.2814 21.6837 9.23985 21.5528 9.16131C21.4219 9.08277 21.3147 8.97017 21.2427 8.83553C21.1708 8.70088 21.1367 8.54923 21.1441 8.39673C21.1515 8.24424 21.2002 8.09661 21.2849 7.9696L22.0865 6.76662C22.2061 6.58718 22.2525 6.36875 22.2161 6.15618C22.1797 5.94362 22.0632 5.75307 21.8907 5.62366L21.0699 5.00782C20.5525 4.61944 20.2035 4.04777 20.0944 3.41015C19.9853 2.77253 20.1244 2.11733 20.4831 1.57904L21.2847 0.375956C21.3462 0.283761 21.4252 0.204576 21.5173 0.142921C21.6093 0.0812672 21.7126 0.0383512 21.8213 0.016624C21.93 -0.00510332 22.0418 -0.00521622 22.1505 0.0162912C22.2592 0.0377987 22.3626 0.0805052 22.4548 0.141973C22.547 0.203441 22.6262 0.282466 22.6879 0.374537C22.7495 0.466607 22.7924 0.569919 22.8142 0.678575C22.8359 0.787231 22.836 0.899103 22.8145 1.0078C22.793 1.1165 22.7503 1.2199 22.6888 1.3121L21.8869 2.51507C21.7673 2.69453 21.721 2.91297 21.7574 3.12553C21.7938 3.3381 21.9102 3.52864 22.0828 3.65804L22.9036 4.27387C23.4211 4.66219 23.7702 5.23384 23.8794 5.87147C23.9887 6.50911 23.8497 7.16437 23.491 7.70276L22.6894 8.90584C22.6123 9.02162 22.5077 9.11652 22.385 9.18207C22.2623 9.24762 22.1253 9.28179 21.9862 9.28152V9.28152Z" fill="#E0E2E5"/>
<path d="M15.2362 9.28165C15.0835 9.28153 14.9337 9.23998 14.8028 9.16144C14.6719 9.08289 14.5647 8.9703 14.4927 8.83565C14.4208 8.701 14.3867 8.54935 14.3941 8.39686C14.4015 8.24436 14.4502 8.09674 14.5349 7.96972L15.3365 6.76675C15.4561 6.58731 15.5025 6.36887 15.4661 6.15631C15.4297 5.94375 15.3132 5.75319 15.1407 5.62378L14.3199 5.00795C13.8025 4.61957 13.4535 4.0479 13.3444 3.41028C13.2353 2.77266 13.3744 2.11746 13.7331 1.57916L14.5347 0.376081C14.6588 0.189885 14.8519 0.0606298 15.0713 0.0167496C15.2907 -0.0271307 15.5186 0.0179587 15.7048 0.142099C15.891 0.266239 16.0203 0.45926 16.0642 0.678701C16.108 0.898141 16.0629 1.12603 15.9388 1.31222L15.1369 2.5152C15.0173 2.69465 14.971 2.91309 15.0074 3.12566C15.0438 3.33822 15.1602 3.52877 15.3328 3.65816L16.1536 4.27399C16.6711 4.66232 17.0202 5.23396 17.1294 5.8716C17.2387 6.50924 17.0997 7.1645 16.741 7.70289L15.9394 8.90597C15.8623 9.02175 15.7577 9.11665 15.635 9.18219C15.5123 9.24774 15.3753 9.28191 15.2362 9.28165V9.28165Z" fill="#E0E2E5"/>
<path d="M28.6424 9.28154C28.4897 9.28142 28.3399 9.23987 28.209 9.16133C28.0781 9.08279 27.9709 8.97019 27.899 8.83554C27.827 8.7009 27.7929 8.54925 27.8003 8.39675C27.8077 8.24426 27.8564 8.09663 27.9411 7.96962L28.7432 6.76664C28.8628 6.58719 28.9092 6.36874 28.8728 6.15618C28.8363 5.94362 28.7199 5.75307 28.5474 5.62368L27.7265 5.00795C27.2091 4.61963 26.8599 4.04798 26.7507 3.41035C26.6415 2.77271 26.7805 2.11745 27.1391 1.57906L27.9407 0.375975C28.0648 0.189695 28.2579 0.060359 28.4774 0.0164195C28.5861 -0.00533719 28.698 -0.00547361 28.8067 0.0160179C28.9155 0.0375095 29.0189 0.0802082 29.1111 0.141676C29.2034 0.203144 29.2826 0.282177 29.3443 0.374263C29.406 0.46635 29.4489 0.569685 29.4707 0.678371C29.4925 0.787056 29.4926 0.898962 29.4711 1.0077C29.4496 1.11644 29.4069 1.21988 29.3454 1.31212L28.5439 2.51509C28.4243 2.69453 28.3779 2.91297 28.4143 3.12553C28.4507 3.33809 28.5671 3.52865 28.7396 3.65806L29.5605 4.27389C30.078 4.66218 30.4271 5.23383 30.5364 5.87148C30.6456 6.50913 30.5066 7.1644 30.1479 7.70278L29.3463 8.90586C29.2691 9.02173 29.1644 9.11668 29.0416 9.18224C28.9188 9.24779 28.7816 9.28191 28.6424 9.28154V9.28154Z" fill="#E0E2E5"/>
<path d="M49.7812 20.2503H40.5C40.2762 20.2503 40.0616 20.1614 39.9034 20.0032C39.7451 19.8449 39.6562 19.6303 39.6562 19.4066C39.6562 19.1828 39.7451 18.9682 39.9034 18.8099C40.0616 18.6517 40.2762 18.5628 40.5 18.5628H49.7812C50.005 18.5628 50.2196 18.6517 50.3779 18.8099C50.5361 18.9682 50.625 19.1828 50.625 19.4066C50.625 19.6303 50.5361 19.8449 50.3779 20.0032C50.2196 20.1614 50.005 20.2503 49.7812 20.2503Z" fill="#E0E2E5"/>
<path d="M43.875 30.3753H38.8125C38.5887 30.3753 38.3741 30.2864 38.2159 30.1282C38.0576 29.9699 37.9688 29.7553 37.9688 29.5316C37.9688 29.3078 38.0576 29.0932 38.2159 28.9349C38.3741 28.7767 38.5887 28.6878 38.8125 28.6878H43.875C44.0988 28.6878 44.3134 28.7767 44.4716 28.9349C44.6299 29.0932 44.7188 29.3078 44.7188 29.5316C44.7188 29.7553 44.6299 29.9699 44.4716 30.1282C44.3134 30.2864 44.0988 30.3753 43.875 30.3753Z" fill="#E0E2E5"/>
<path d="M49.7812 43.8752H0.84375C0.619974 43.8752 0.405362 43.7863 0.247129 43.6281C0.0888948 43.4699 0 43.2553 0 43.0315C0 42.8077 0.0888948 42.5931 0.247129 42.4349C0.405362 42.2766 0.619974 42.1877 0.84375 42.1877H49.7812C50.005 42.1877 50.2196 42.2766 50.3779 42.4349C50.5361 42.5931 50.625 42.8077 50.625 43.0315C50.625 43.2553 50.5361 43.4699 50.3779 43.6281C50.2196 43.7863 50.005 43.8752 49.7812 43.8752Z" fill="#C2C5C6"/>
<path d="M0.84375 34.594H43.0312V36.2815C43.0312 36.729 42.8535 37.1583 42.537 37.4747C42.2205 37.7912 41.7913 37.969 41.3438 37.969H2.53125C2.0837 37.969 1.65447 37.7912 1.33801 37.4747C1.02154 37.1583 0.84375 36.729 0.84375 36.2815V34.594Z" fill="#FDD14B"/>
<path d="M34.5938 43.0315C37.3897 43.0315 39.6562 40.7649 39.6562 37.969C39.6562 35.1731 37.3897 32.9065 34.5938 32.9065C31.7978 32.9065 29.5312 35.1731 29.5312 37.969C29.5312 40.7649 31.7978 43.0315 34.5938 43.0315Z" fill="#6A7073"/>
<path d="M34.5938 39.6565C35.5257 39.6565 36.2812 38.901 36.2812 37.969C36.2812 37.037 35.5257 36.2815 34.5938 36.2815C33.6618 36.2815 32.9062 37.037 32.9062 37.969C32.9062 38.901 33.6618 39.6565 34.5938 39.6565Z" fill="#99A2A7"/>
<path d="M9.28125 43.0315C12.0772 43.0315 14.3438 40.7649 14.3438 37.969C14.3438 35.1731 12.0772 32.9065 9.28125 32.9065C6.48531 32.9065 4.21875 35.1731 4.21875 37.969C4.21875 40.7649 6.48531 43.0315 9.28125 43.0315Z" fill="#6A7073"/>
<path d="M9.28125 39.6565C10.2132 39.6565 10.9688 38.901 10.9688 37.969C10.9688 37.037 10.2132 36.2815 9.28125 36.2815C8.34927 36.2815 7.59375 37.037 7.59375 37.969C7.59375 38.901 8.34927 39.6565 9.28125 39.6565Z" fill="#99A2A7"/>
<path d="M14.3438 31.219H29.5312V32.9065C29.5312 33.354 29.3535 33.7833 29.037 34.0997C28.7205 34.4162 28.2913 34.594 27.8438 34.594H16.0312C15.5837 34.594 15.1545 34.4162 14.838 34.0997C14.5215 33.7833 14.3438 33.354 14.3438 32.9065V31.219Z" fill="#EA8333"/>
<path d="M28.841 27.8441C29.6882 27.8441 30.375 28.5995 30.375 29.5316C30.375 30.4636 29.6882 31.2191 28.841 31.2191H15.034C14.1868 31.2191 13.5 30.4636 13.5 29.5316C13.5 28.5995 14.1868 27.8441 15.034 27.8441H28.841Z" fill="#794832"/>
<path d="M15.1875 24.4691H28.6875V27.8441H15.1875V24.4691Z" fill="#FDD14B"/>
<path d="M31.2188 25.3128C31.2188 26.7108 30.0315 27.8441 28.5669 27.8441C28.1346 27.8474 27.7078 27.7461 27.3229 27.549C26.9381 27.3519 26.6066 27.0647 26.3566 26.7119C26.1044 27.0622 25.7725 27.3475 25.3884 27.5443C25.0042 27.7411 24.5787 27.8437 24.1471 27.8437C23.7154 27.8437 23.29 27.7411 22.9058 27.5443C22.5216 27.3475 22.1897 27.0622 21.9375 26.7119C21.6853 27.0622 21.3534 27.3475 20.9692 27.5443C20.585 27.7411 20.1596 27.8437 19.7279 27.8437C19.2963 27.8437 18.8708 27.7411 18.4866 27.5443C18.1025 27.3475 17.7706 27.0622 17.5184 26.7119C17.2684 27.0647 16.9369 27.3519 16.552 27.549C16.1672 27.7461 15.7404 27.8474 15.3081 27.8441C13.8435 27.8441 12.6562 26.7108 12.6562 25.3128C12.6562 25.089 12.7451 24.8744 12.9034 24.7162C13.0616 24.5579 13.2762 24.4691 13.5 24.4691H30.375C30.5988 24.4691 30.8134 24.5579 30.9716 24.7162C31.1299 24.8744 31.2188 25.089 31.2188 25.3128Z" fill="#3BA673"/>
<path d="M29.5313 17.7191V10.9691C29.5312 10.8004 29.5818 10.6357 29.6763 10.496C29.7709 10.3564 29.9051 10.2483 30.0617 10.1856L34.2804 8.49815C34.3833 8.457 34.4933 8.43651 34.6041 8.43787C34.7149 8.43922 34.8243 8.46238 34.9261 8.50603C35.028 8.54968 35.1202 8.61297 35.1976 8.69227C35.275 8.77157 35.336 8.86534 35.3772 8.96822C35.4183 9.0711 35.4388 9.18108 35.4375 9.29188C35.4361 9.40267 35.4129 9.51212 35.3693 9.61396C35.3256 9.71581 35.2624 9.80806 35.1831 9.88544C35.1037 9.96283 35.01 10.0238 34.9071 10.065L31.2188 11.5403V17.7191H29.5313Z" fill="#E74444"/>
<path d="M29.5312 14.3441H31.2188V17.7191H29.5312V14.3441Z" fill="#CE3536"/>
</svg>
